<?xml version="1.0" encoding="UTF-8" standalone="no"?>
<!-- Created with Inkscape (http://www.inkscape.org/) -->

<svg
   width="74.364876mm"
   height="74.04409mm"
   viewBox="0 0 74.364876 74.04409"
   version="1.1"
   id="svg527"
   inkscape:version="1.2.2 (b0a8486541, 2022-12-01)"
   sodipodi:docname="clef4.svg"
   xml:space="preserve"
   xmlns:inkscape="http://www.inkscape.org/namespaces/inkscape"
   xmlns:sodipodi="http://sodipodi.sourceforge.net/DTD/sodipodi-0.dtd"
   xmlns="http://www.w3.org/2000/svg"
   xmlns:svg="http://www.w3.org/2000/svg"><sodipodi:namedview
     id="namedview529"
     pagecolor="#ffffff"
     bordercolor="#000000"
     borderopacity="0.25"
     inkscape:showpageshadow="2"
     inkscape:pageopacity="0.0"
     inkscape:pagecheckerboard="0"
     inkscape:deskcolor="#d1d1d1"
     inkscape:document-units="mm"
     showgrid="false"
     inkscape:zoom="0.5734571"
     inkscape:cx="214.48858"
     inkscape:cy="244.13334"
     inkscape:window-width="2560"
     inkscape:window-height="1528"
     inkscape:window-x="0"
     inkscape:window-y="0"
     inkscape:window-maximized="1"
     inkscape:current-layer="layer1" /><defs
     id="defs524" /><g
     inkscape:label="Calque 1"
     inkscape:groupmode="layer"
     id="layer1"
     transform="translate(-9.2777379,-105.51656)"><path
       style="fill:#0000d4;stroke-width:0.532006"
       d="m 27.563165,158.70701 c -3.613865,-1.19743 -5.355191,-2.33283 -7.873422,-5.1337 -5.860427,-6.51822 -5.778954,-16.01787 0.193412,-22.5526 3.591037,-3.92917 6.906963,-5.35537 12.468062,-5.3626 3.219419,-0.004 4.855022,0.26949 6.715205,1.12359 3.25123,1.49279 6.396881,4.39579 7.963818,7.3495 l 1.270661,2.39523 14.635445,0.14115 14.635444,0.14115 v 5.58606 5.58608 l -2.793037,0.16086 -2.793034,0.16086 v 5.55827 5.55828 h -5.586071 -5.586071 v -5.58608 -5.58607 H 54.561594 48.3096 l -1.275007,2.40342 c -1.584323,2.98648 -4.745805,5.89096 -7.959591,7.31259 -3.024796,1.33801 -8.626577,1.70008 -11.511837,0.74405 z m 6.897839,-11.21615 c 1.8714,-0.78194 3.476292,-3.13458 3.476292,-5.09599 0,-3.29296 -3.732578,-6.28527 -6.956816,-5.57711 -3.70656,0.81409 -5.467981,5.96917 -3.077833,9.00775 1.877873,2.38732 3.714337,2.85365 6.558357,1.66535 z"
       id="path1012" /></g></svg>
