<?xml version="1.0" encoding="UTF-8" standalone="no"?>
<!-- Created with Inkscape (http://www.inkscape.org/) -->

<svg
   width="74.364876mm"
   height="74.04409mm"
   viewBox="0 0 74.364876 74.04409"
   version="1.1"
   id="svg527"
   inkscape:version="1.2.2 (b0a8486541, 2022-12-01)"
   sodipodi:docname="clef2.svg"
   xml:space="preserve"
   xmlns:inkscape="http://www.inkscape.org/namespaces/inkscape"
   xmlns:sodipodi="http://sodipodi.sourceforge.net/DTD/sodipodi-0.dtd"
   xmlns="http://www.w3.org/2000/svg"
   xmlns:svg="http://www.w3.org/2000/svg"><sodipodi:namedview
     id="namedview529"
     pagecolor="#ffffff"
     bordercolor="#000000"
     borderopacity="0.25"
     inkscape:showpageshadow="2"
     inkscape:pageopacity="0.0"
     inkscape:pagecheckerboard="0"
     inkscape:deskcolor="#d1d1d1"
     inkscape:document-units="mm"
     showgrid="false"
     inkscape:zoom="0.5734571"
     inkscape:cx="214.48858"
     inkscape:cy="244.13334"
     inkscape:window-width="2560"
     inkscape:window-height="1528"
     inkscape:window-x="0"
     inkscape:window-y="0"
     inkscape:window-maximized="1"
     inkscape:current-layer="layer1" /><defs
     id="defs524" /><g
     inkscape:label="Calque 1"
     inkscape:groupmode="layer"
     id="layer1"
     transform="translate(-9.2777379,-105.51656)"><path
       style="fill:#5555ff;stroke-width:0.532006"
       d="m 27.563168,158.70701 c -3.61387,-1.19743 -5.35519,-2.33283 -7.87342,-5.1337 -5.86043,-6.51822 -5.77896,-16.01787 0.19341,-22.5526 3.59104,-3.92917 6.90696,-5.35537 12.46806,-5.3626 3.21942,-0.004 4.85502,0.26949 6.71521,1.12359 3.25123,1.49279 6.39688,4.39579 7.96381,7.3495 l 1.27067,2.39523 14.63544,0.14115 14.63544,0.14115 v 5.58606 5.58608 l -2.79303,0.16086 -2.79304,0.16086 v 5.55827 5.55828 h -5.58607 -5.58607 v -5.58608 -5.58607 h -6.25198 -6.252 l -1.275,2.40342 c -1.58433,2.98648 -4.74581,5.89096 -7.95959,7.31259 -3.0248,1.33801 -8.62658,1.70008 -11.51184,0.74405 z m 6.89784,-11.21615 c 1.8714,-0.78194 3.47629,-3.13458 3.47629,-5.09599 0,-3.29296 -3.73258,-6.28527 -6.95682,-5.57711 -3.70656,0.81409 -5.46798,5.96917 -3.07783,9.00775 1.87787,2.38732 3.71434,2.85365 6.55836,1.66535 z"
       id="path1043" /></g></svg>
