<?xml version="1.0" encoding="UTF-8" standalone="no"?>
<!-- Created with Inkscape (http://www.inkscape.org/) -->

<svg
   width="74.364876mm"
   height="74.04409mm"
   viewBox="0 0 74.364876 74.04409"
   version="1.1"
   id="svg527"
   inkscape:version="1.2.2 (b0a8486541, 2022-12-01)"
   sodipodi:docname="serrure1.svg"
   xml:space="preserve"
   xmlns:inkscape="http://www.inkscape.org/namespaces/inkscape"
   xmlns:sodipodi="http://sodipodi.sourceforge.net/DTD/sodipodi-0.dtd"
   xmlns="http://www.w3.org/2000/svg"
   xmlns:svg="http://www.w3.org/2000/svg"><sodipodi:namedview
     id="namedview529"
     pagecolor="#ffffff"
     bordercolor="#000000"
     borderopacity="0.25"
     inkscape:showpageshadow="2"
     inkscape:pageopacity="0.0"
     inkscape:pagecheckerboard="0"
     inkscape:deskcolor="#d1d1d1"
     inkscape:document-units="mm"
     showgrid="false"
     inkscape:zoom="2.9714331"
     inkscape:cx="186.44203"
     inkscape:cy="80.769108"
     inkscape:window-width="2560"
     inkscape:window-height="1528"
     inkscape:window-x="0"
     inkscape:window-y="0"
     inkscape:window-maximized="1"
     inkscape:current-layer="layer1" /><defs
     id="defs524" /><g
     inkscape:label="Calque 1"
     inkscape:groupmode="layer"
     id="layer1"
     transform="translate(-9.2777379,-105.51656)"><path
       style="fill:#000000;stroke-width:0.139469"
       d="m 42.612626,172.03044 c -6.637348,-0.90171 -12.425474,-3.76446 -17.167887,-8.49108 -5.658538,-5.6397 -8.703678,-12.98612 -8.703678,-20.99768 0,-8.01716 3.041184,-15.35404 8.703678,-20.99768 5.698188,-5.67921 13.005524,-8.70929 21.003294,-8.70929 8.015602,0 15.331141,3.03153 21.003291,8.70368 8.03371,8.0337 10.78266,19.77819 7.15226,30.55694 -3.25918,9.67663 -11.66368,17.26355 -21.540382,19.44497 -3.179411,0.70222 -7.42408,0.9013 -10.450576,0.49014 z M 49.376889,149.673 v -4.72357 l 0.926243,-0.5414 c 3.309776,-1.93458 4.519978,-6.38029 2.677722,-9.83671 -2.361105,-4.42989 -8.515943,-5.24566 -11.919369,-1.57982 -3.218838,3.46702 -2.464454,9.07935 1.534781,11.41818 l 0.922911,0.53975 v 4.72357 4.72358 h 2.928856 2.928856 z"
       id="path1549" /></g></svg>
