<?xml version="1.0" encoding="UTF-8" standalone="no"?>
<!-- Created with Inkscape (http://www.inkscape.org/) -->

<svg
   width="74.364876mm"
   height="74.04409mm"
   viewBox="0 0 74.364876 74.04409"
   version="1.1"
   id="svg527"
   inkscape:version="1.2.2 (b0a8486541, 2022-12-01)"
   sodipodi:docname="serrure3.svg"
   xml:space="preserve"
   xmlns:inkscape="http://www.inkscape.org/namespaces/inkscape"
   xmlns:sodipodi="http://sodipodi.sourceforge.net/DTD/sodipodi-0.dtd"
   xmlns="http://www.w3.org/2000/svg"
   xmlns:svg="http://www.w3.org/2000/svg"><sodipodi:namedview
     id="namedview529"
     pagecolor="#ffffff"
     bordercolor="#000000"
     borderopacity="0.25"
     inkscape:showpageshadow="2"
     inkscape:pageopacity="0.0"
     inkscape:pagecheckerboard="0"
     inkscape:deskcolor="#d1d1d1"
     inkscape:document-units="mm"
     showgrid="false"
     inkscape:zoom="1.3721518"
     inkscape:cx="169.07751"
     inkscape:cy="10.202953"
     inkscape:window-width="2560"
     inkscape:window-height="1528"
     inkscape:window-x="0"
     inkscape:window-y="0"
     inkscape:window-maximized="1"
     inkscape:current-layer="layer1" /><defs
     id="defs524" /><g
     inkscape:label="Calque 1"
     inkscape:groupmode="layer"
     id="layer1"
     transform="translate(-9.2777379,-105.51656)"><path
       style="fill:#aaaaff;stroke-width:0.299325"
       d="m 37.363252,131.90651 c 0.67372,-2.03329 1.31253,-3.01301 2.8884,-4.42986 3.66737,-3.29728 9.0122,-3.25144 12.68886,0.10882 2.21068,2.02044 3.01311,3.88609 3.01718,7.01496 0.002,1.81135 -0.15163,2.7316 -0.63217,3.7782 -0.8399,1.82926 -2.47322,3.59911 -4.13508,4.48071 l -1.34764,0.71492 -0.0794,8.2344 -0.0794,8.2344 h -3.1429 -3.14292 l -0.0905,-1.57145 -0.0905,-1.57146 h -3.12727 -3.12728 v -3.14292 -3.14291 h 3.14292 3.14292 v -3.51758 -3.51758 l -1.35225,-0.71736 c -1.68029,-0.8914 -3.31445,-2.67016 -4.11431,-4.47834 -0.75281,-1.70185 -0.95652,-4.85361 -0.41863,-6.47695 z m 6.31059,3.88096 c 0.43995,1.05291 1.76362,1.95588 2.86718,1.95588 1.85273,0 3.5363,-2.10008 3.13787,-3.91415 -0.45804,-2.08543 -3.35846,-3.07647 -5.06807,-1.73169 -1.34319,1.05655 -1.60556,2.08982 -0.93698,3.68996 z"
       id="path1273" /><path
       style="fill:#aaaaff;stroke-width:0.299325"
       d="m 251.27899,130.79166 c 0.67372,-2.03329 1.31253,-3.01301 2.8884,-4.42986 3.66737,-3.29728 9.0122,-3.25144 12.68886,0.10882 2.21068,2.02044 3.01311,3.88609 3.01718,7.01496 0.002,1.81135 -0.15163,2.7316 -0.63217,3.7782 -0.8399,1.82926 -2.47322,3.59911 -4.13508,4.48071 l -1.34764,0.71492 -0.0794,8.2344 -0.0794,8.2344 h -3.1429 -3.14292 l -0.0905,-1.57145 -0.0905,-1.57146 h -3.12727 -3.12728 v -3.14292 -3.14291 h 3.14292 3.14292 v -3.51758 -3.51758 l -1.35225,-0.71736 c -1.68029,-0.8914 -3.31445,-2.67016 -4.11431,-4.47834 -0.75281,-1.70185 -0.95652,-4.85361 -0.41863,-6.47695 z m 6.31059,3.88096 c 0.43995,1.05291 1.76362,1.95588 2.86718,1.95588 1.85273,0 3.5363,-2.10008 3.13787,-3.91415 -0.45804,-2.08543 -3.35846,-3.07647 -5.06807,-1.73169 -1.34319,1.05655 -1.60556,2.08982 -0.93698,3.68996 z"
       id="path1322" /></g></svg>
